# Blender v3.2.0 OBJ File: 'BeveledCube.blend'
# www.blender.org
mtllib BeveledCube.mtl
o Cube
v 0.500000 0.500000 -1.000000
v 0.500000 1.000000 -0.500000
v 1.000000 0.500000 -0.500000
v 0.500000 -1.000000 -0.500000
v 0.500000 -0.500000 -1.000000
v 1.000000 -0.500000 -0.500000
v 1.000000 0.500000 0.500000
v 0.500000 1.000000 0.500000
v 0.500000 0.500000 1.000000
v 1.000000 -0.500000 0.500000
v 0.500000 -0.500000 1.000000
v 0.500000 -1.000000 0.500000
v -0.500000 0.500000 -1.000000
v -1.000000 0.500000 -0.500000
v -0.500000 1.000000 -0.500000
v -1.000000 -0.500000 -0.500000
v -0.500000 -0.500000 -1.000000
v -0.500000 -1.000000 -0.500000
v -1.000000 0.500000 0.500000
v -0.500000 0.500000 1.000000
v -0.500000 -1.000000 0.500000
v -0.500000 -0.500000 1.000000
v -1.000000 -0.500000 0.500000
v -0.500000 1.000000 0.500000
vt 0.122978 0.690015
vt 0.064632 0.748361
vt 0.064632 0.690015
vt 0.123095 0.814512
vt 0.065006 0.872601
vt 0.065006 0.814512
vt 0.123095 0.814512
vt 0.065006 0.872601
vt 0.065006 0.814512
vt 0.123226 0.939774
vt 0.064900 0.997557
vt 0.064900 0.939774
vt 0.123095 0.814512
vt 0.065006 0.872601
vt 0.065006 0.814512
vt 0.008222 0.881451
vt 0.055029 0.881677
vt 0.031829 0.927497
vt 0.031845 0.760394
vt 0.055689 0.806253
vt 0.007729 0.806131
vt 0.008144 0.881490
vt 0.055010 0.881639
vt 0.032054 0.927538
vt 0.007728 0.806137
vt 0.031862 0.760336
vt 0.055725 0.806212
vt 0.054930 0.881516
vt 0.032037 0.927654
vt 0.008328 0.881533
vt 0.007734 0.806148
vt 0.031867 0.760065
vt 0.055751 0.806444
vt 0.054806 0.882197
vt 0.031920 0.927506
vt 0.008252 0.881990
vt 0.031982 0.760376
vt 0.055641 0.806271
vt 0.008101 0.805903
vt 0.123010 0.810303
vt 0.064813 0.752105
vt 0.123010 0.752105
vt 0.123010 0.810303
vt 0.064813 0.752105
vt 0.123010 0.752105
vt 0.123095 0.872601
vt 0.123095 0.814512
vt 0.065006 0.872601
vt 0.065006 0.814512
vt 0.123095 0.872601
vt 0.123095 0.872601
vt 0.065006 0.814512
vt 0.065006 0.872601
vt 0.065411 0.877900
vt 0.122523 0.935013
vt 0.065411 0.935012
vt 0.123010 0.810303
vt 0.064813 0.752105
vt 0.123010 0.752105
vt 0.065239 0.877471
vt 0.122805 0.935037
vt 0.065239 0.935037
vt 0.065532 0.877601
vt 0.122785 0.934853
vt 0.065532 0.934853
vt 0.123010 0.810303
vt 0.064813 0.752105
vt 0.123010 0.752105
vt 0.123095 0.814512
vt 0.064647 0.877265
vt 0.122749 0.935367
vt 0.064647 0.935367
vt 0.122978 0.748361
vt 0.123095 0.872601
vt 0.123226 0.997557
vt 0.064813 0.810303
vt 0.064813 0.810303
vt 0.123095 0.872601
vt 0.122523 0.877900
vt 0.064813 0.810303
vt 0.122805 0.877471
vt 0.122785 0.877601
vt 0.064813 0.810303
vt 0.122749 0.877265
vn 0.0000 1.0000 0.0000
vn 1.0000 0.0000 0.0000
vn 0.0000 0.0000 -1.0000
vn 0.0000 -1.0000 0.0000
vn -1.0000 0.0000 0.0000
vn -0.5774 -0.5774 0.5774
vn -0.5774 0.5774 0.5774
vn -0.5774 -0.5774 -0.5774
vn -0.5774 0.5774 -0.5774
vn 0.5774 -0.5774 0.5774
vn 0.5774 0.5774 0.5774
vn 0.5774 -0.5774 -0.5774
vn 0.5774 0.5774 -0.5774
vn 0.7071 0.7071 0.0000
vn 0.0000 0.7071 0.7071
vn -0.7071 0.0000 0.7071
vn 0.7071 0.0000 -0.7071
vn -0.7071 0.0000 -0.7071
vn 0.7071 0.0000 0.7071
vn -0.7071 -0.7071 0.0000
vn 0.0000 0.7071 -0.7071
vn 0.7071 -0.7071 0.0000
vn 0.0000 -0.7071 0.7071
vn -0.7071 0.7071 0.0000
vn 0.0000 0.0000 1.0000
vn 0.0000 -0.7071 -0.7071
usemtl Material
s off
f 21/1/1 4/2/1 18/3/1
f 16/4/2 19/5/2 23/6/2
f 22/7/3 9/8/3 11/9/3
f 8/10/4 15/11/4 2/12/4
f 10/13/5 3/14/5 6/15/5
f 1/16/6 3/17/6 2/18/6
f 4/19/7 6/20/7 5/21/7
f 7/22/8 9/23/8 8/24/8
f 10/25/9 12/26/9 11/27/9
f 13/28/10 15/29/10 14/30/10
f 16/31/11 18/32/11 17/33/11
f 19/34/12 24/35/12 20/36/12
f 21/37/13 23/38/13 22/39/13
f 16/40/14 21/41/14 18/42/14
f 5/43/15 18/44/15 4/45/15
f 1/46/16 6/15/16 3/14/16
f 23/47/17 20/48/17 22/49/17
f 7/50/18 11/9/18 9/8/18
f 14/51/19 17/52/19 13/53/19
f 3/54/20 8/55/20 2/56/20
f 22/57/21 12/58/21 21/59/21
f 19/60/22 15/61/22 24/62/22
f 13/63/23 2/64/23 15/65/23
f 10/66/24 4/67/24 12/68/24
f 5/69/25 13/53/25 17/52/25
f 9/70/26 24/71/26 8/72/26
f 21/1/1 12/73/1 4/2/1
f 16/4/2 14/51/2 19/5/2
f 22/7/3 20/74/3 9/8/3
f 8/10/4 24/75/4 15/11/4
f 10/13/5 7/50/5 3/14/5
f 16/40/14 23/76/14 21/41/14
f 5/43/15 17/77/15 18/44/15
f 1/46/16 5/69/16 6/15/16
f 23/47/17 19/78/17 20/48/17
f 7/50/18 10/13/18 11/9/18
f 14/51/19 16/4/19 17/52/19
f 3/54/20 7/79/20 8/55/20
f 22/57/21 11/80/21 12/58/21
f 19/60/22 14/81/22 15/61/22
f 13/63/23 1/82/23 2/64/23
f 10/66/24 6/83/24 4/67/24
f 5/69/25 1/46/25 13/53/25
f 9/70/26 20/84/26 24/71/26
